<?xml version="1.0" encoding="utf-8"?>
<!-- Svg Vector Icons : http://www.onlinewebfonts.com/icon -->
<!DOCTYPE svg PUBLIC "-//W3C//DTD SVG 1.1//EN" "http://www.w3.org/Graphics/SVG/1.1/DTD/svg11.dtd">
<svg version="1.1" xmlns="http://www.w3.org/2000/svg" xmlns:xlink="http://www.w3.org/1999/xlink"  width="24" height="24">>
<g><path d="M262.1,736.7c0,25.9,21.9,38.8,65.7,38.8c38.3,0,57.5-13.4,57.5-40.3c0-25.4-20.9-38.1-62.7-38.1C282.3,697.1,262.2,710.3,262.1,736.7L262.1,736.7z M826.7,10H173.4C83.5,10,10,83.5,10,173.4v653.3C10,916.6,83.5,990,173.4,990h653.3c89.8,0,163.3-73.4,163.3-163.4V173.4C990,83.5,916.5,10,826.7,10z M465.3,401.4c-7,2.5-16.9,5.2-29.9,8.2c4,11.5,6,22.1,6,32.1c0,31.9-9.6,59.6-28.8,83.3c-19.2,23.6-43.9,37.7-74.3,42.2c-19.9,3-29.9,13.7-29.9,32.1c0,6.5,3.2,13,9.7,19.4c8.5,9.5,20.9,15.4,37.3,17.9c71.2,11,106.8,40.6,106.8,88.9c0,77.2-46.1,115.8-138.1,115.8c-37.9,0-69-6.7-93.3-20.2c-30.9-16.9-46.3-43.5-46.3-79.9c0-41.8,23.2-70.4,69.5-85.9v-1.5c-16.9-10.4-25.4-26.4-25.4-47.8c0-27.9,8-45.3,23.9-52.3v-1.5c-15.9-5.5-30.1-17.9-42.6-37.4C196,494,189,471.6,189,447.7c0-35.9,12.7-65.7,38.1-89.6c24.4-22.4,53.5-33.6,87.4-33.6c24.4,0,47,6,68,17.9c23.9,0,51.5-6,82.9-17.9L465.3,401.4L465.3,401.4z M586.3,659.8h-84.4c1-10,1.5-26.9,1.5-50.8V376.8c0-23.4-0.5-39.6-1.5-48.5h84.4c-1,9.5-1.5,25.1-1.5,47v229.3C584.8,629.9,585.3,648.4,586.3,659.8L586.3,659.8z M580.7,253.6c-10.2,11-22.3,16.4-36.2,16.4c-14.4,0-26.8-5.5-37-16.4c-10.2-10.9-15.3-23.9-15.3-38.8c0-15.4,5.1-28.6,15.3-39.6s22.5-16.4,37-16.4c13.9,0,26,5.5,36.2,16.4c10.2,11,15.3,24.1,15.3,39.6C596,229.7,590.9,242.6,580.7,253.6L580.7,253.6z M815.5,650.1C797.1,660,775,665,749,665c-36.4,0-61.5-12.9-75.4-38.8c-10.5-19.4-15.7-50-15.7-91.8V400.7h0.7v-1.5l-11.2-0.7c-6.5,0-14.9,0.7-25.4,2.2v-72.4h36.6v-29.1c0-13.9-0.7-25.1-2.2-33.6h86.6c-1.5,9.5-2.2,20.2-2.2,32.1v30.6h65v72.4c-2.5,0-7.1-0.2-13.8-0.7s-13.1-0.8-19-0.8h-32.1v138.9c0,33.4,11,50,32.9,50c15.4,0,29.4-4.2,41.8-12.7L815.5,650.1L815.5,650.1z M317.4,393.2c-31.4,0-47,18.4-47,55.3c0,34.4,15.7,51.5,47,51.5c30.4,0,45.6-17.4,45.6-52.3c0-14.5-3.5-26.9-10.4-37.3C344.1,399,332.4,393.2,317.4,393.2L317.4,393.2z"/></g>
</svg>